<svg xmlns="http://www.w3.org/2000/svg" viewBox="0 0 16000 16000"><path d="M1324.22,13851.56q324.09-1031.25,925.78-1898.43,601.5-867.19,1457-1523.44T5625,9398.44q-609.37-328.12-1093.75-796.88T3707,7562.5q-339.84-570.19-523.44-1222.66Q2999.95,5687.63,3000,5000q0-687.37,179.69-1328.12,179.63-640.52,503.9-1195.32,324.1-554.62,781.25-1011.72T5476.56,683.59q554.63-324.09,1195.32-503.9Q7312.38.06,8000,0q687.38,0,1328.13,179.69,640.5,179.81,1195.31,503.9,554.63,324.28,1011.72,781.25t781.25,1011.72q324.09,554.82,503.9,1195.32Q12999.94,4312.56,13000,5000t-183.59,1339.84Q12632.75,6992.25,12293,7562.5t-824.22,1039.06q-484.5,468.75-1093.75,796.88,1054.69,375,1910.16,1031.25t1460.93,1523.44q605.35,867.18,929.69,1898.43,324.1,1031.25,324.22,2148.44H1000Q1000,14882.88,1324.22,13851.56Z"/></svg>