<svg xmlns="http://www.w3.org/2000/svg" viewBox="0 0 16000 16000"><path d="M16000,1600V15466.67H0V1600H2133.33V533.33h3200q733.22,0,1412.5,225,679.11,225,1254.17,675,575-450,1254.17-675t1412.5-225h3200V1600ZM1066.67,14400H7783.33q-266.79-258.21-541.66-454.17-275-195.7-570.84-333.33t-625-208.33q-329.3-70.71-712.5-70.84h-3200V2666.67H1066.67ZM3200,12266.67H5333.33a4454.42,4454.42,0,0,1,1100,137.5q541.6,137.49,1033.34,412.5v-10450q-450-375-1000-570.84T5333.33,1600H3200Zm11733.33-9600H13866.67V13333.33h-3200q-383.4,0-712.5,70.84-329.3,70.89-625,208.33-295.91,137.51-570.84,333.33T8216.67,14400h6716.66ZM10666.67,1600q-583.41,0-1133.34,195.83t-1000,570.84v10450q491.61-275,1033.34-412.5a4452.88,4452.88,0,0,1,1100-137.5H12800V1600Z"/></svg>