<svg xmlns="http://www.w3.org/2000/svg" viewBox="0 0 16000 16000"><path d="M14500,4000V14000q0,414.18-160.16,777.34t-429.68,632.82q-269.53,269.52-636.72,429.68T12500,16000H3500q-414.18,0-777.34-160.16t-632.82-429.68q-269.52-269.53-429.68-632.82T1500,14000V4000H3500V3000q0-617.07,238.28-1164.06,238.21-546.75,644.53-953.13,406.13-406.12,953.13-644.53Q5882.69.06,6500,0q812.44,0,1507.81,406.25Q8703.06.13,9500,0q617.07,0,1164.06,238.28,546.75,238.41,953.13,644.53,406.13,406.32,644.53,953.13Q12499.94,2382.87,12500,3000V4000Zm-10000,0H8500V3000q0-406.12-160.16-773.44-160.21-367.12-429.68-636.72t-636.72-429.68Q6906.12,1000.13,6500,1000q-414.18,0-777.34,160.16t-632.82,429.68q-269.52,269.54-429.68,636.72T4500,3000Zm7000-1000q0-406.12-160.16-773.44-160.22-367.12-429.68-636.72t-636.72-429.68Q9906.12,1000.13,9500,1000q-351.56,0-664.06,117.19,226.5,281.25,359.37,554.69t199.22,546.87a3339.64,3339.64,0,0,1,85.94,558.59Q9499.88,3062.63,9500,3375v625h2000Zm2000,2000H11500v9000q0,210.94,78.13,390.63T11793,14707q136.59,136.78,316.41,214.85,179.63,78.18,390.62,78.12t390.63-78.12q179.63-78,316.4-214.85,136.6-136.59,214.85-316.4,78-179.64,78.12-390.63Z"/></svg>