<svg xmlns="http://www.w3.org/2000/svg" viewBox="0 0 16000 16000"><path d="M12500,12000q312.38,0,585.94,117.19,273.38,117.18,476.56,320.31t320.31,476.56Q14000,13187.63,14000,13500q0,312.56-117.19,585.94-117.18,273.55-320.31,476.56-203.25,203.25-476.56,320.31Q12812.37,15000,12500,15000q-312.56,0-585.94-117.19-273.55-117.18-476.56-320.31-203.25-203.07-320.31-476.56T11000,13500q0-242.07,85.94-500H6914.06q85.88,257.82,85.94,500,0,312.56-117.19,585.94-117.18,273.55-320.31,476.56-203.25,203.25-476.56,320.31Q5812.37,15000,5500,15000q-312.56,0-585.94-117.19-273.56-117.18-476.56-320.31-203.25-203.07-320.31-476.56T4000,13500q0-429.57,230.47-796.87,230.34-367.14,621.09-554.69L1476.56,2000H0V1000H2195.31l664.07,2000H16000l-2328.12,7000H5195.31l664.07,2000ZM6000,13500q0-203.07-148.44-351.56Q5703.06,13000.12,5500,13000q-203.25,0-351.56,148.44-148.5,148.5-148.44,351.56,0,203.25,148.44,351.56,148.31,148.5,351.56,148.44,203.07,0,351.56-148.44Q5999.88,13703.26,6000,13500Zm6500,500q203.07,0,351.56-148.44,148.32-148.3,148.44-351.56,0-203.07-148.44-351.56-148.5-148.32-351.56-148.44-203.25,0-351.56,148.44-148.5,148.5-148.44,351.56,0,203.25,148.44,351.56Q12296.75,14000.06,12500,14000Z"/></svg>