<svg xmlns="http://www.w3.org/2000/svg" viewBox="0 0 16000 16000"><path d="M12976.56,7000q624.95,0,1175.78,234.38t960.94,636.71q410.16,402.47,648.44,949.22Q15999.94,9367.26,16000,10000q0,625.13-234.37,1168-234.37,543.09-644.54,953.12t-957,644.54Q13617.13,13000,13000,13000H4000q-828.18,0-1558.59-312.5Q1710.82,12375.13,1168,11832q-543.09-542.91-855.47-1273.44Q-.06,9828.2,0,9000q0-828,312.5-1558.59Q624.88,6711,1168,6168q542.91-542.91,1273.44-855.47Q3171.81,5000.13,4000,5000q359.25,0,726.56,70.31,312.38-484.31,722.66-871.09t894.53-652.34Q6828.07,3281.37,7375,3140.63,7921.75,3000,8500,3000q867.19,0,1636.72,304.69T11500,4144.53q593.63,535.22,980.47,1269.53T12976.56,7000Z"/></svg>