<svg xmlns="http://www.w3.org/2000/svg" viewBox="0 0 16000 16000"><polygon points="13800.01 4260.02 13800.01 7160.01 15780 5640.02 13800.01 4260.02"/><polygon points="2199.99 4260.02 220 5640.02 2199.99 7160.01 2199.99 4260.02"/><path d="M13200,7620V1200H2800V7620l5200,4000ZM4800,3200H6600c165.68,0,300,134.33,300,300s-134.33,300-300,300H4800c-165.68,0-300-134.33-300-300S4634.33,3200,4800,3200Zm0,1800h6400c165.68,0,300,134.33,300,300s-134.33,300-300,300H4800c-165.68,0-300-134.33-300-300S4634.33,5000,4800,5000ZM4500,7100c0-165.68,134.33-300,300-300h6400c165.68,0,300,134.33,300,300s-134.33,300-300,300H4800C4634.33,7400,4500,7265.67,4500,7100Z"/><polygon points="0 6200 0 14600.02 5799.99 10680.01 0 6200"/><polygon points="10200 10680.01 16000 14600.02 16000 6200 10200 10680.01"/><path d="M8180,12220a300,300,0,0,1-360,0L6320,11080,760,14800H15240L9700,11060Z"/></svg>