<svg xmlns="http://www.w3.org/2000/svg" viewBox="0 0 16000 16000"><path d="M10000,500q0,1398.55,515.63,2578.13Q11031.26,4257.87,12000,5250t1484.38,2171.88Q14000,8601.62,14000,10000q0,828.18-214.84,1593.75-215,765.75-605.47,1433.59-390.75,668-937.5,1214.85a5979.17,5979.17,0,0,1-1214.85,937.5q-668,390.75-1433.59,605.47Q8828,16000.13,8000,16000q-828.18,0-1593.75-214.84-765.75-214.78-1433.59-605.47t-1214.85-937.5q-546.93-546.75-937.5-1214.85-390.75-668-605.47-1433.59-215-765.57-214.84-1593.75,0-656.25,140.63-1289.06t406.25-1214.85q265.5-581.91,656.25-1097.65,390.55-515.62,882.81-945.31,54.56,297,148.44,613.28a6159.51,6159.51,0,0,0,222.65,625,5228.29,5228.29,0,0,0,293,593.75q164.07,285.27,359.38,519.53,156.18,195.38,406.25,195.31,210.93,0,355.46-148.44t144.54-359.37q0-85.87-27.35-156.25t-74.22-140.63q-218.81-320.25-386.72-632.81a4652.67,4652.67,0,0,1-285.15-640.62Q5125,5593.76,5062.5,5242.19T5000,4500q0-929.62,355.47-1750t964.84-1429.69Q6929.69,710.94,7750,355.47T9500,0h500Z"/></svg>