<svg xmlns="http://www.w3.org/2000/svg" viewBox="0 0 16000 16000"><path d="M14500,6000q304.69,0,578.13,117.19t480.46,320.31q206.91,203.25,324.22,476.56Q16000,7187.63,16000,7500q0,250.13-78.12,476.56l-2000,6000q-78.19,226.7-218.75,418-140.62,191.53-328.13,324.22-187.5,132.93-410.16,207-222.65,74.34-464.84,74.22H8500q-1398.56,0-2695.31-539.06-562.5-226.5-1128.91-343.75T3500,14000H0V7000H3257.81q507.75,0,957-187.5t808.6-546.87L9882.81,1414.06q195.2-195.18,390.63-304.68Q10468.62,1000.06,10750,1000q257.82,0,484.38,97.66t398.43,269.53q171.75,171.93,269.53,398.44,97.6,226.68,97.66,484.37,0,632.82-140.62,1207t-414.07,1136.72a5602.43,5602.43,0,0,0-265.62,683.59q-109.5,347.73-148.44,722.66Z"/></svg>