<svg xmlns="http://www.w3.org/2000/svg" viewBox="0 0 16000 16000"><path d="M15500,16000H500L3500,7000H7500V4953.13q-437.62-93.75-804.69-320.32Q6328,4406.31,6062.5,4082q-265.68-324.09-414.06-730.47Q5499.94,2945.44,5500,2500q0-515.62,195.31-968.75t535.16-793q339.84-339.84,796.87-539.06T8000,0q515.63,0,968.75,199.22t793,539.06q339.84,339.84,539.06,793T10500,2500q0,445.32-148.44,851.56T9937.5,4082q-265.68,324.29-632.81,550.78Q8937.37,4859.5,8500,4953.13V7000h4000ZM1890.63,15000H14109.38L11781.25,8000H8500v3750q0,70.32-58.59,121.09t-140.63,78.13a929.94,929.94,0,0,1-164.06,39.06q-82,11.71-136.72,11.72t-136.72-11.72a929.94,929.94,0,0,1-164.06-39.06q-82-27.28-140.63-78.13T7500,11750V8000H4218.75ZM6500,2500q0,312.55,117.19,585.94,117.18,273.55,320.31,476.56,203.07,203.25,476.56,320.31T8000,4000q312.38,0,585.94-117.19,273.38-117.18,476.56-320.31t320.31-476.56Q9500,2812.57,9500,2500q0-312.37-117.19-585.94-117.18-273.37-320.31-476.56t-476.56-320.31Q8312.37,1000,8000,1000q-312.56,0-585.94,117.19Q7140.5,1234.37,6937.5,1437.5q-203.25,203.25-320.31,476.56Q6500,2187.63,6500,2500Z"/></svg>