<svg xmlns="http://www.w3.org/2000/svg" viewBox="0 0 16000 16000"><path d="M14757.81,2238.28q414,414.18,691.41,906.25,277.22,492.19,414.06,1023.44A4328.19,4328.19,0,0,1,16000,5250q0,550.78-136.72,1078.13t-414.06,1019.53q-277.41,492.18-691.41,906.25L8000,15003.91l-6757.81-6750q-414.2-414-691.41-906.25Q273.37,6855.47,136.72,6328.13T0,5250q0-550.78,136.72-1082T550.78,3144.53Q828,2652.35,1242.19,2238.28q609.38-601.5,1382.81-921.87T4250,996.09q851.44,0,1625,320.32t1382.81,921.87l742.19,750,742.19-750q609.38-601.5,1382.81-921.87t1625-320.32q851.44,0,1625,320.32T14757.81,2238.28Z"/></svg>