<svg xmlns="http://www.w3.org/2000/svg" viewBox="0 0 16000 16000"><path d="M12558.59,9476.56q343.69,0,660.16,128.91t558.59,371.09l1718.75,1718.75q242.07,242.25,371.1,558.6t128.9,660.15q0,343.88-128.9,660.16t-371.1,558.59l-109.37,109.38q-421.87,421.88-773.44,750T13878.91,15543q-382.87,222.66-851.57,339.84T11910.16,16000q-976.69,0-2007.82-304.69t-2050.78-843.75q-1019.52-539.05-2000-1281.25T4000,11949.22q-871.22-878.91-1605.47-1859.38-734.43-980.34-1265.62-2000Q597.53,7070.32,300.78,6054.69,3.78,5039.19,3.91,4085.94q0-648.37,113.28-1109.38t335.94-843.75Q675.77,1750.13,1000,1402.34q324.09-347.53,746.09-769.53l125-125q242.07-242.05,554.69-375Q2738.16.06,3089.84,0,3433.54,0,3750,132.81t558.59,375L6027.34,2226.56q242.07,242.25,371.1,558.6t128.9,660.15q0,343.88-117.18,613.28t-289.07,488.29a2894,2894,0,0,1-378.9,398.43q-207.09,179.82-378.91,351.57-171.93,171.93-289.06,347.65T4957,6023.44q0,297,210.94,507.81l4304.69,4304.69q210.93,210.93,507.81,210.94,203.06,0,378.91-117.19t347.65-289.06q171.75-171.76,351.56-378.91A2894.77,2894.77,0,0,1,11457,9882.81q218.63-171.75,488.28-289.06T12558.59,9476.56Z"/></svg>