<svg xmlns="http://www.w3.org/2000/svg" viewBox="0 0 16000 16000"><path d="M16000,5547.74q-265.32,265.32-518.59,486.43T14958.79,6408q-269.46,152.82-586.93,237.19-317.72,84.42-719.6,84.42-273.44,0-522.61-48.24L10082.41,9728.64a3580,3580,0,0,1,152.77,627.14,4331.65,4331.65,0,0,1,48.24,643.21q0,522.75-104.53,948.75-104.58,426.25-301.5,804-197.11,378-478.4,719.6-281.52,341.83-635.17,695.47L5660.3,11063.32,1093.47,15638.19,0,16000l361.81-1093.47L4936.68,10339.7,1833.17,7236.18,2195,6874.37q562.7-562.68,1290.46-860.3Q4213,5716.71,5009.05,5716.58q659.16,0,1262.31,201L9318.59,2870.35q-48.24-249.12-48.24-522.61,0-393.84,84.42-711.56,84.43-317.52,237.19-590.95Q9744.6,772,9965.83,518.59q221-253.26,486.43-518.59Z"/></svg>