<svg xmlns="http://www.w3.org/2000/svg" viewBox="0 0 16000 16000"><path d="M8000,0q705.22,0,1330.36,267.86,624.85,267.86,1093.75,736.6t736.6,1093.75q267.87,625.08,267.86,1330.36v9142.86q0,714.42-267.86,1334.82-267.85,620.67-736.6,1089.29t-1093.75,736.6Q8705.28,16000,8000,16000q-714.42,0-1334.82-267.86-620.67-267.85-1089.29-736.6t-736.6-1089.29q-267.87-620.46-267.86-1334.82V3428.57q0-705.21,267.86-1330.36,267.85-624.85,736.6-1093.75t1089.29-736.6Q7285.64,0,8000,0Zm2285.71,3428.57q0-473.15-178.57-888.39T9616.07,1812.5q-312.63-312.43-727.68-491.07T8000,1142.86q-473.35,0-888.39,178.57T6383.93,1812.5q-312.65,312.65-491.07,727.68-178.71,415.17-178.57,888.39v9142.86q0,473.35,178.57,888.39,178.5,415.19,491.07,727.68,312.43,312.65,727.68,491.07,415.17,178.71,888.39,178.57t888.39-178.57q415.19-178.5,727.68-491.07t491.07-727.68q178.5-415.17,178.57-888.39ZM8000,2285.71q241.07,0,446.43,89.29T8808,2620.54q156.1,156.32,245.53,361.6,89.15,205.5,89.29,446.43T9053.57,3875q-89.35,205.5-245.53,361.61-156.33,156.31-361.61,245.53-205.5,89.35-446.43,89.29t-446.43-89.29Q7348.07,4393,7192,4236.61,7035.65,4080.49,6946.43,3875q-89.36-205.29-89.29-446.43t89.29-446.43q89.14-205.29,245.53-361.6,156.12-156.12,361.61-245.54Q7758.86,2285.86,8000,2285.71Z"/></svg>