<svg xmlns="http://www.w3.org/2000/svg" viewBox="0 0 16000 16000"><path d="M10156.25,2343.75q1078.13,343.88,1972.66,1000t1531.25,1539.06q636.65,882.94,988.28,1937.5T15000,9000q0,968.81-250,1863.28-250.12,894.66-707,1671.88-457,777.47-1093.75,1414.06-636.84,636.84-1414.06,1093.75-777.47,457-1671.88,707-894.65,250.13-1863.28,250-968.81,0-1863.28-250-894.66-249.94-1671.88-707-777.47-457-1414.06-1093.75Q2413.94,13312.56,1957,12535.16t-707-1671.88Q999.88,9968.81,1000,9000q0-1125,351.56-2179.69t988.28-1937.5q636.66-882.75,1531.25-1539.06t1972.66-1000l312.5,945.31q-929.81,304.7-1695.31,867.19-765.75,562.5-1312.5,1312.5-546.95,750-847.66,1652.34T2000,9000q0,828.18,214.84,1593.75,214.78,765.75,605.47,1433.59t937.5,1214.85q546.75,546.93,1214.85,937.5,668,390.75,1433.59,605.47,765.57,215,1593.75,214.84,828,0,1593.75-214.84,765.57-214.78,1433.59-605.47a5979.17,5979.17,0,0,0,1214.85-937.5q546.75-546.75,937.5-1214.85,390.55-668,605.47-1433.59T14000,9000q0-976.5-300.78-1878.91t-847.66-1652.34q-546.93-750-1312.5-1312.5-765.75-562.5-1695.31-867.19ZM8500,8000H7500V0H8500Z"/></svg>