<svg xmlns="http://www.w3.org/2000/svg" viewBox="0 0 16000 16000"><path d="M7322.74,7307.69,6173.91,3500,8000,7026.76,9826.09,3500,8672.24,7307.69l3742.48-1173.91L8953.18,8005,12414.72,9861.2,8672.24,8687.29,9826.09,12500,8000,8978.26,6173.91,12500,7322.74,8687.29,3585.28,9861.2,7046.82,8005,3585.28,6133.78Z"/><path d="M3000,5000q203.07,0,351.56,148.44Q3499.88,5296.94,3500,5500q0,203.25-148.44,351.56L1203.13,8000l2148.43,2148.44q148.32,148.5,148.44,351.56,0,203.25-148.44,351.56-148.5,148.5-351.56,148.44-203.25,0-351.56-148.44l-2500-2500Q-.06,8203.26,0,8000q0-203.07,148.44-351.56l2500-2500Q2796.75,5000.12,3000,5000ZM8000,0q203.07,0,351.56,148.44l2500,2500q148.32,148.5,148.44,351.56,0,203.25-148.44,351.56-148.5,148.5-351.56,148.44-203.25,0-351.56-148.44L8000,1203.13,5851.56,3351.56Q5703.06,3500.06,5500,3500q-203.25,0-351.56-148.44Q4999.94,3203.26,5000,3000q0-203.07,148.44-351.56l2500-2500Q7796.75.12,8000,0Zm2148.44,12648.44q148.3-148.32,351.56-148.44,203.07,0,351.56,148.44,148.32,148.5,148.44,351.56,0,203.25-148.44,351.56l-2500,2500q-148.5,148.5-351.56,148.44-203.25,0-351.56-148.44l-2500-2500q-148.5-148.3-148.44-351.56,0-203.07,148.44-351.56Q5296.75,12500.12,5500,12500q203.07,0,351.56,148.44L8000,14796.88ZM13000,5000q203.07,0,351.56,148.44l2500,2500q148.32,148.5,148.44,351.56,0,203.25-148.44,351.56l-2500,2500q-148.5,148.5-351.56,148.44-203.25,0-351.56-148.44-148.5-148.3-148.44-351.56,0-203.07,148.44-351.56L14796.88,8000,12648.44,5851.56Q12499.94,5703.25,12500,5500q0-203.07,148.44-351.56Q12796.75,5000.12,13000,5000Z"/><path d="M8000,15808.47c-137,0-274-52.14-378.3-156.44L348,8378.3a535.22,535.22,0,0,1,0-756.6L7621.7,348a535.22,535.22,0,0,1,756.6,0L15652,7621.7c208.6,208.6,208.59,548,0,756.6L8378.3,15652C8274,15756.33,8137,15808.47,8000,15808.47ZM1030.33,8000,8000,14969.67,14969.67,8000,8000,1030.33Zm-152-152Z"/></svg>