<svg xmlns="http://www.w3.org/2000/svg" viewBox="0 0 16000 16000"><path d="M16000,8048.39q0,2968.24-1935.48,5209.67Q12129,15499.75,9258.06,15951.61V10371h1871l354.84-2322.58H9258.06V6532.26q0-1225.56,1290.33-1225.81h1000V3338.71q-903.48-161-1774.2-161.29-936,0-1596.77,354.84Q7515.88,3887.6,7129,4596.77q-387.09,709.93-387.09,1677.42v1774.2H4709.68V10371H6741.94v5580.64q-2871.48-452.11-4806.46-2693.55Q0,11016.39,0,8048.39,0,4726.31,2338.71,2387.1,4677.17,48.64,8000,48.39q3322.08,0,5661.29,2338.71Q15999.75,4726.31,16000,8048.39Z"/></svg>