<svg xmlns="http://www.w3.org/2000/svg" viewBox="0 0 16000 16000"><path d="M15964.29,4714.29q35.14,964.28,35.71,3285.71,0,2322-35.71,3285.71-107.15,2178.86-1303.58,3375-1197,1196.16-3375,1267.86-964.27,71.15-3285.71,71.43-2322,0-3285.71-71.43-2178.86-107.15-3357.15-1285.71-464.57-428.58-750-1000Q320.87,13072,196.43,12535.71q-125.57-535.71-125-1250Q-.56,10321.44,0,8000,0,5678.86,71.43,4678.57,178.58,2535.72,1357.14,1357.14,2535.72,143.41,4714.29,35.71,5678.57.57,8000,0q2321.15,0,3285.71,35.71,2178,107.15,3375,1303.58Q15856.87,2536.28,15964.29,4714.29Zm-1714.29,8000q107.15-285.44,178.57-732.15,71.15-446.15,107.14-1071.43,35.16-624.43,35.72-1017.85V6107.14q0-392.58-35.72-1017.85-36-624.45-107.14-1071.43-72-446.16-178.57-732.15Q13821.44,2179.13,12714.29,1750q-286.28-107.14-732.15-178.57-447-71.15-1071.43-107.14-625.27-35.16-1000-35.72H6107.14q-393.41,0-1017.85,35.72-625.29,36-1071.43,107.14-447,72-732.15,178.57Q2178.29,2178.57,1750,3285.71,1642.86,3572,1571.43,4017.86q-72,447-107.14,1071.43-36,625.28-35.72,1000V9517.86q0,339.84,17.86,875,17.58,535.71,53.57,910.71,35.16,375,107.14,767.86,71.16,393.42,142.86,642.86Q2213.73,13821.71,3285.71,14250q285.43,107.15,732.15,178.57,446.15,72,1071.43,107.14,624.44,36,1000,35.72H9892.86q392.58,0,1017.85-35.72,624.45-35.14,1071.43-107.14,446.16-71.15,732.15-178.57Q13820.87,13786.28,14250,12714.29Zm-9160.71-7625Q6285.44,3893.13,8000,3892.86q1714.29,0,2910.71,1196.43,1196.16,1197,1196.43,2910.71,0,1714.29-1196.43,2910.71-1197,1197-2910.71,1196.43-1714.29,0-2910.71-1196.43Q3892.29,9714.57,3892.86,8000,3892.86,6285.71,5089.29,5089.29ZM6107.14,9892.86q785.16,786,1892.86,785.71,1106.58,0,1892.86-785.71Q10678,9107.7,10678.57,8000q0-1106.58-785.71-1892.86Q9106.86,5322,8000,5321.43q-1107.42,0-1892.86,785.71-786,786-785.71,1892.86Q5321.43,9107.42,6107.14,9892.86Zm6839.29-6839.29q267.85,267.85,267.86,660.72,0,393.4-267.86,678.57-267.85,286.28-660.72,285.71-393.4,0-678.57-285.71-286.27-285.44-285.71-678.57,0-392.58,285.71-660.72,285.44-267.85,678.57-267.86Q12678.29,2785.71,12946.43,3053.57Z"/></svg>