<svg xmlns="http://www.w3.org/2000/svg" viewBox="0 0 16000 16000"><path d="M1928.57,3857.14q-786,0-1357.14-571.43Q-.28,2714.84,0,1928.57,0,1143.41,571.43,571.43,1142.3.56,1928.57,0,2428.29,0,2875,250q446.14,250.28,714.29,696.43,267.86,447,267.85,964.28,0,518.14-267.85,964.29Q3321.42,3322,2875,3589.29,2428,3857.15,1928.57,3857.14ZM3571.43,16000H250V5321.43H3571.43Zm12428.57,0H12678.57V10785.71q0-606.85-35.71-982.14-36-375-178.57-857.14-143.15-482.15-517.86-732.14-375-249.45-982.14-250-1178.58,0-1589.29,750-411,750-410.71,2000V16000H5642.86V5321.43H8857.14V6785.71h35.72q356.58-714,1178.57-1232.14,821.15-517.29,1964.28-517.86,1213.74,0,2017.86,375,803.58,375,1214.29,1107.15,410.15,732.42,571.43,1589.28Q16000,8964.29,16000,10142.86Z"/></svg>