<svg xmlns="http://www.w3.org/2000/svg" viewBox="0 0 16000 16000"><path d="M8032.26,0q3387.09,0,5677.42,2209.68Q15999.75,4419.6,16000,7774.19q0,2709.69-1548.39,4693.55t-3919.35,2709.68q-2371,725.81-4822.58,48.39c-43.35-21.68-75.61-32.26-96.78-32.26H5451.61c-43.34,0-80.64,5-112.9,16.13-32.26,10.58-75.61,26.71-129,48.38-53.93,21.17-107.87,48.39-161.29,80.65-53.93,32.26-134.58,69.56-241.94,112.9q-161.79,64.27-290.32,129-129.29,64.26-371,161.29-241.93,96.77-467.74,193.54-129.28,64.28-258.07,64.52-258.55,0-451.61-177.42-193.54-177.68-193.55-435.48v-451.62q0-226-16.13-371a2549.65,2549.65,0,0,1-16.12-290.33v-225.8a837.81,837.81,0,0,0-16.13-161.29c-11.09-53.43-21.68-96.78-32.26-129q-16.64-48.37-48.39-96.77c-21.67-32.26-37.8-59-48.39-80.64-11.08-21.17-37.8-42.85-80.64-64.52Q0,11258.57,0,7774.19,0,6129,629,4677.42T2322.58,2209.68Q3387.1,1193.55,4871,596.77,6354.34.25,8032.26,0Zm4806.45,5967.74q161-257.81-64.52-467.74-226.05-209.43-483.87-16.13L9741.94,7387.1q-129.29,96.76-290.33,96.77-161.79,0-290.32-96.77l-1871-1419.36q-322.83-225.3-709.67-225.8-677.43,0-1032.26,548.38L3193.55,10032.26q-96.78,161.79-16.13,338.71,80.14,177.68,241.93,225.8,161,48.39,322.59-48.38L6290.32,8612.9q128.54-96.77,290.33-96.77,161,0,290.32,96.77l1871,1419.36q322.06,226,709.67,225.8,677.43,0,1032.26-548.38Z"/></svg>