<svg xmlns="http://www.w3.org/2000/svg" viewBox="0 0 16000 16000"><path d="M13661.29,2338.71Q15999.75,4677.93,16000,8000q0,3322.83-2338.71,5661.29Q11322.07,15999.75,8000,16000q-1226.31,0-2354.84-354.84,774.19-1290.57,967.74-2096.77L7129,11645.16q193.55,387.1,709.68,645.16,515.62,258.57,1129,258.07,1773.69,0,2951.61-1435.49,1177.17-1435,1177.42-3532.25,0-1967.25-1419.35-3290.33Q10257.57,2968,8161.29,2967.74q-2451.87,0-3854.84,1419.36Q2903.23,5807,2903.23,7806.45q0,936,451.61,1854.84,451.36,919.35,1161.29,1241.94,225.3,96.76,258.06-96.78,31.76-64.26,112.91-435.48c53.42-247,91.23-403.23,112.9-467.74,21.17-85.69,0-161.29-64.52-225.81q-580.63-741.69-580.64-1838.71,0-1386.6,983.87-2435.48,983.63-1047.88,2629-1048.39,1483.36,0,2419.36,919.35,935.22,919.37,935.48,2338.71,0,1064.52-338.71,1903.23-338.72,839.21-919.35,1306.45-580.65,468-1258.07,467.74-613.16,0-967.74-435.48-355.35-435.48-225.81-1016.13,64.28-322.08,258.07-903.23,193.54-580.64,290.32-1016.13t96.77-758.06q0-290.32-96.77-548.39-96.78-257.81-338.71-403.22-241.93-145.17-564.52-145.16-613.16,0-1032.25,548.38Q5806.2,7161.8,5806.45,8000a2406.2,2406.2,0,0,0,16.13,274.19c10.59,96.78,21.17,183,32.26,258.07a1624.12,1624.12,0,0,0,48.39,225.8c21.17,75.61,37.29,134.58,48.38,177.42,10.59,43.35,26.72,86.19,48.39,129,21.17,43.34,32.26,75.6,32.26,96.77l32.26,32.26q-806.72,3322.83-967.75,3967.74-161.79,806.7,0,2290.32-2290.82-871-3693.54-2903.22Q0,10516.13,0,8000,0,4677.92,2338.71,2338.71,4677.17.26,8000,0,11322.08,0,13661.29,2338.71Z"/></svg>