<svg xmlns="http://www.w3.org/2000/svg" viewBox="0 0 16000 16000"><path d="M14343.75,4750c20.51,83.5,31.25,218.75,31.25,406.25q0,1656.73-625,3296.88-625.49,1640.63-1765.62,3000-1141.12,1359.38-2953.13,2203.12Q7218.5,14500,5031.25,14500,2281,14500,0,13031.25q343.5,31.5,781.25,31.25,2280.77,0,4093.75-1406.25-1094.23,0-1921.87-640.62-828.37-640.14-1140.63-1609.38,312,31.5,593.75,31.25,437.25,0,875-93.75-750-156-1343.75-625Q1343.5,8250,1000,7578.13,655.77,6906.49,656.25,6125v-62.5Q1343.27,6469,2125,6500,655.76,5500.25,656.25,3750q0-874.52,468.75-1656.25,1218.75,1531.5,2984.38,2437.5Q5874.51,5438,7875,5531.25a4519.74,4519.74,0,0,1-62.5-750q0-1343.27,953.13-2312.5Q9718.5,1500.49,11062.5,1500q1437,0,2406.25,1031.25Q14593.75,2313,15562.5,1750q-375,1156.5-1437.5,1812.5,937.5-124.52,1875-531.25Q15312.25,4031.73,14343.75,4750Z"/></svg>