<svg xmlns="http://www.w3.org/2000/svg" viewBox="0 0 16000 16000"><path d="M15630.42,3899.24q-89.15,445.74-698.31,1456.07-609.41,1010.56-1114.34,1768.08-505.64,757.74-534.88,787.46-178.29,267.45-178.3,386.31,0,119.08,178.3,416,385.83,416.47,653.74,683.45,267.45,267.45,594.31,624,326.65,356.59,609.18,698.32,282.06,342,505.16,698.32,222.87,356.58,312,594.31,207.54,743.13-594.32,742.89H13609.76c-138.83,0-257.69-19.5-356.59-59.43-99.36-39.47-208-108.65-326.87-208a2528.68,2528.68,0,0,1-326.87-326.87q-149-178.29-445.74-505.17-297.37-326.64-594.31-624Q10370.53,9902,9806.16,9901.8q-356.59,0-416,208-59.9,208.25-59.43,1188.63,29.25,475.68,29.71,772.6,0,356.59-237.72,520-238.19,163.67-1040.05,163.43-1397.1,0-2823-832-1426.35-831.57-2496.12-2377.25Q1753,8178.76,1084.62,6826.23,416,5474.4,208,4761-.23,4047.83,0,3750.66q0-504.93,594.31-505.16H2347.54q326.63,0,490.3,148.58,163,149,282.3,534.88,624,1812.89,1530.36,3239,906.09,1426.35,1381.77,1426.35,178.31,0,252.59-133.72,73.81-133.71,74.29-520V5355.31q-30-415.79-148.58-713.18-119.1-296.69-237.73-430.87A3009.58,3009.58,0,0,1,5750,3929c-69.65-98.9-104-188.05-104-267.44,0-78.93,19.5-148.58,59.43-208,39.47-59.43,93.79-108.65,163.44-148.58q103.77-59.2,222.86-59.43H8855.26q475,0,475.45,653.74v3447q0,505.62,282.3,505.16,282.06,0,817.18-534.88,564.14-624,1099.48-1515.5,534.87-891.47,802.32-1485.78l267.44-564.6q207.54-504.93,742.89-505.16h1753.22Q15808.72,3245.5,15630.42,3899.24Z"/></svg>