<svg xmlns="http://www.w3.org/2000/svg" viewBox="0 0 16000 16000"><path d="M13607.14,2321.43Q15999.45,4714.56,16000,7928.57q0,3286.28-2357.14,5607.14Q11285.72,15856.87,8000,15857.14q-2035.71,0-3785.71-964.28L0,16000l1142.86-4107.14Q71.42,10071.42,71.43,7928.57q0-3285.43,2321.43-5607.14Q4714,.29,8000,0,11285.44,0,13607.14,2321.43ZM8000,14535.71q2713.72,0,4678.57-1946.42,1963.72-1946.16,1964.29-4660.72,35.15-2642.58-2000-4642.86Q10714.28,1357.15,8000,1357.14q-2714.57,0-4660.71,1928.57-1947,1928.58-1946.43,4642.86,0,1893.42,1035.71,3500l142.86,250-678.57,2428.57,2500-642.85,250,142.85Q6178,14536.27,8000,14535.71Zm3607.14-4964.28q356.6,179.13,392.86,250,107.15,214.29-142.86,964.28Q11750,11072,11303.57,11375q-447,303.85-767.86,339.29-929.13,143.13-2392.85-500-1750.29-750-3357.15-3000-822-1106.6-821.42-2035.72,0-892.29,678.57-1678.57,249.44-214.29,535.71-214.29h392.86q321.42,0,428.57,321.43l607.14,1464.29c71.43,142.86,83.15,262.28,35.72,357.14Q6499.72,6750,6285.71,6982.14c-142.85,155.14-226.56,244.42-250,267.86q-36,36,35.72,250,499.72,929.13,1089.28,1392.86Q7750,9357.42,8750,9857.14q285.44,143.15,428.57-35.71,463.72-535.71,642.86-785.72,142.29-214.27,428.57-107.14Q10535.44,9035.72,11607.14,9571.43Z"/></svg>