<svg xmlns="http://www.w3.org/2000/svg" viewBox="0 0 8748 15552"><defs><style>.a{fill:#f0f0f0;}.b{opacity:0.5;}.c,.d{opacity:0.25;}</style></defs><rect class="a" width="8748" height="15552"/><circle class="b" cx="4374" cy="3780" r="1080"/><g class="c"><rect x="1494" y="7560" width="5760" height="540" rx="64"/></g><circle class="d" cx="1640" cy="14202" r="270"/><g class="c"><rect x="2458" y="14067" width="3840" height="270" rx="64"/></g><g class="c"><rect x="5874" y="9180" width="1380" height="270" rx="64"/></g><g class="c"><rect x="1494" y="9180" width="3840" height="270" rx="64"/></g><circle class="d" cx="1640" cy="13392" r="270"/><g class="c"><rect x="2458" y="13257" width="3840" height="270" rx="64"/></g><circle class="d" cx="1640" cy="12582" r="270"/><g class="c"><rect x="2458" y="12447" width="3840" height="270" rx="64"/></g><circle class="d" cx="4374" cy="3780" r="1620"/><g class="c"><rect x="1494" y="10260" width="1380" height="270" rx="64"/></g><g class="c"><rect x="1494" y="9720" width="2610" height="270" rx="64"/></g><g class="c"><rect x="4644" y="9720" width="2610" height="270" rx="64"/></g><g class="c"><rect x="3414" y="10260" width="3840" height="270" rx="64"/></g><g class="c"><rect x="6838" y="12312" width="540" height="540" rx="64"/></g><g class="c"><rect x="6838" y="13122" width="540" height="540" rx="64"/></g><g class="c"><rect x="6838" y="13932" width="540" height="540" rx="64"/></g></svg>